<svg xmlns="http://www.w3.org/2000/svg" xmlns:xlink="http://www.w3.org/1999/xlink" width="1080" height="1920" viewBox="0 0 1080 1920">
  <defs>
    <clipPath id="clip-path">
      <rect id="Rectangle_2230" data-name="Rectangle 2230" width="516" height="510.133" fill="none"/>
    </clipPath>
    <clipPath id="clip-frame_CPA_default_9.16">
      <rect width="1080" height="1920"/>
    </clipPath>
  </defs>
  <g id="frame_CPA_default_9.16" clip-path="url(#clip-frame_CPA_default_9.16)">
    <g id="Group_2514" data-name="Group 2514">
      <path id="Exclusion_1" data-name="Exclusion 1" d="M-7654-7025H-8734V-8945h1080v1920ZM-8661-8889a29.792,29.792,0,0,0-11.676,2.357,29.885,29.885,0,0,0-9.536,6.43,29.885,29.885,0,0,0-6.43,9.536A29.792,29.792,0,0,0-8691-8859v1748a29.8,29.8,0,0,0,2.357,11.677,29.887,29.887,0,0,0,6.43,9.535,29.883,29.883,0,0,0,9.536,6.429A29.792,29.792,0,0,0-8661-7081h935a29.806,29.806,0,0,0,11.678-2.357,29.9,29.9,0,0,0,9.536-6.429,29.894,29.894,0,0,0,6.43-9.535A29.8,29.8,0,0,0-7696-7111V-8859a29.792,29.792,0,0,0-2.357-11.676,29.885,29.885,0,0,0-6.43-9.536,29.875,29.875,0,0,0-9.536-6.43A29.806,29.806,0,0,0-7726-8889Z" transform="translate(8734 8945)" fill="#0004ff"/>
      <g id="Group_2503" data-name="Group 2503" transform="translate(52 33.871)">
        <g id="Group_2502" data-name="Group 2502" transform="translate(0 -0.004)" clip-path="url(#clip-path)">
          <path id="Path_49884" data-name="Path 49884" d="M103.831,457.077A371.069,371.069,0,0,1,3.78,243.169L2.523,231.8l11.107-2.731A366.2,366.2,0,0,1,132.925,220,366.2,366.2,0,0,1,248.9,249.372l10.469,4.594-3.18,10.987a366.2,366.2,0,0,1-51.8,107.848,366.382,366.382,0,0,1-83.421,85.754l-9.219,6.777Z" transform="translate(-1.304 -112.943)" fill="#0004ff"/>
          <path id="Path_49885" data-name="Path 49885" d="M103.831,457.077A371.069,371.069,0,0,1,3.78,243.169L2.523,231.8l11.107-2.731A366.2,366.2,0,0,1,132.925,220,366.2,366.2,0,0,1,248.9,249.372l10.469,4.594-3.18,10.987a366.2,366.2,0,0,1-51.8,107.848,366.382,366.382,0,0,1-83.421,85.754l-9.219,6.777Z" transform="translate(-1.304 -112.943)" fill="none" stroke="#050786" stroke-miterlimit="10" stroke-width="4.628"/>
          <path id="Path_49886" data-name="Path 49886" d="M147.008,246.972A354.844,354.844,0,0,0,31.956,255.7,358.044,358.044,0,0,0,128.45,462,354.824,354.824,0,0,0,208.9,379.293a354.837,354.837,0,0,0,49.965-104,354.85,354.85,0,0,0-111.856-28.316m55.178,118.736-.372-.393a48.917,48.917,0,0,0-3.506-4.629c-1.285-1.512-2.717-3.031-4.277-4.552l-17.276-4.584a21.32,21.32,0,0,1,1.494,2.263,13.259,13.259,0,0,1,1.358,3.29,7.955,7.955,0,0,1,.188,3.14,6.483,6.483,0,0,1-.645,1.96l17.96,10.889c-.865,1.227-1.73,2.453-2.61,3.667L176.07,365.391a15.817,15.817,0,0,1-3.818,1.738,30.771,30.771,0,0,1-6.215,1.175,55.737,55.737,0,0,1-8.259.108,88.257,88.257,0,0,1-10.194-1.2l9.909,29.159a110.706,110.706,0,0,0,21.233.563,337.582,337.582,0,0,1-48.743,47.306A340.484,340.484,0,0,1,78.2,367.146a158.533,158.533,0,0,0,17.119,10.08,192.726,192.726,0,0,0,24.3,10.287,198.511,198.511,0,0,0,25.977,7.03L138.687,365.3c-3.87-.986-7.723-2.157-11.5-3.493-3.84-1.36-7.555-2.871-11.086-4.5-3.493-1.608-6.77-3.31-9.787-5.072a85.134,85.134,0,0,1-7.518-4.918l-27.659,4.517q-1.225-2.83-2.4-5.672l24.572-3.372a33.294,33.294,0,0,1-4.279-4.833,16.562,16.562,0,0,1-2.269-4.3,8.475,8.475,0,0,1-.441-3.672,6.444,6.444,0,0,1,.7-2.25l-.012,0-27.752-7.372a336.4,336.4,0,0,1-12.692-54.445,341.255,341.255,0,0,1,99.3-5.79,341.286,341.286,0,0,1,96.84,22.718,340.394,340.394,0,0,1-40.527,82.866" transform="translate(-16.511 -126.908)" fill="#fff"/>
          <path id="Path_49887" data-name="Path 49887" d="M267.858,450.958a1.994,1.994,0,0,1-.382.921,3.808,3.808,0,0,1-1.965,1.213,12.39,12.39,0,0,1-3.55.456,28.841,28.841,0,0,1-4.989-.468l3.789,11.139a56.42,56.42,0,0,0,13.539,1.063,17.847,17.847,0,0,0,8.02-2.043,5.116,5.116,0,0,0,2.729-4,7.263,7.263,0,0,0-1.056-4Z" transform="translate(-132.77 -232.994)" fill="#fff"/>
          <path id="Path_49888" data-name="Path 49888" d="M244.9,375.232a1.3,1.3,0,0,0,.031-1.32,5.043,5.043,0,0,0-1.3-1.595,14.36,14.36,0,0,0-2.251-1.578c-.431-.251-.89-.495-1.37-.731l.195-2.256c.356.147.721.289,1.068.44,1.387.61,2.7,1.267,3.911,1.949a30.754,30.754,0,0,1,3.319,2.147,17.577,17.577,0,0,1,1.833,1.594l14.891,4.015a40.51,40.51,0,0,0-5.282-4.408,69.732,69.732,0,0,0-7.353-4.509c-2.583-1.385-5.367-2.7-8.262-3.908-1.224-.509-2.49-.994-3.767-1.467l.176-2.035c1.386.5,2.767,1.013,4.112,1.551q2.493,1,4.895,2.074,2.421,1.084,4.741,2.244l6.623-.912q-3.31-1.612-6.732-3.115-3.368-1.479-6.848-2.854c-2.127-.841-4.3-1.649-6.491-2.429l2.567-29.749c11.408-4.91,22.8,5,32-10.221-10.794,2.332-16.455-6.893-30.41-8.215l-6.481-.56-5.044,58.442c-.59-.123-1.159-.223-1.691-.288a12.081,12.081,0,0,0-2.6-.071,3.946,3.946,0,0,0-1.761.517,1.184,1.184,0,0,0-.593,1.134,2.967,2.967,0,0,0,.887,1.61,11.282,11.282,0,0,0,2.229,1.772,23.032,23.032,0,0,0,3.26,1.684,28.006,28.006,0,0,0,3.87,1.318,20.759,20.759,0,0,0,3.611.635,8.959,8.959,0,0,0,2.622-.125,2.246,2.246,0,0,0,1.4-.779" transform="translate(-117.295 -159.847)" fill="#fff"/>
          <path id="Path_49889" data-name="Path 49889" d="M313.152,439.991c-2.137-1.367-4.336-2.693-6.572-3.968-1.443-.823-2.931-1.607-4.418-2.39l-6.608,1.065c.838.474,1.681.944,2.48,1.435,1.462.9,2.872,1.818,4.217,2.758,1.382.966,2.7,1.956,3.936,2.964,1,.817,1.936,1.652,2.826,2.5l16.094,4.339c-1.761-1.466-3.579-2.9-5.461-4.269-2.1-1.529-4.27-3.008-6.494-4.431" transform="translate(-152.704 -224.043)" fill="#fff"/>
          <path id="Path_49890" data-name="Path 49890" d="M140.411,395.646,130.1,389.289c-2.543-.174-5.056-.273-7.509-.281-2.657-.008-5.262.086-7.777.295a66.066,66.066,0,0,0-7.7,1.073,44.8,44.8,0,0,0-6.583,1.871l24.7,6.66a13.748,13.748,0,0,1,2.66-1.406,23.019,23.019,0,0,1,3.858-1.111,36.726,36.726,0,0,1,4.313-.591c1.387-.111,2.846-.159,4.352-.154" transform="translate(-51.939 -200.987)" fill="#fff"/>
          <path id="Path_49891" data-name="Path 49891" d="M190.4,397.531q2.484.31,5.082.773,2.545.454,5.2,1.055c1.589.362,3.215.776,4.86,1.22l-.91-3.855c-2.363-.676-4.7-1.306-7-1.871q-3.762-.921-7.446-1.66-3.776-.757-7.482-1.324c-1.022-.156-2.029-.271-3.042-.4l9.811,5.964c.313.035.618.059.935.1" transform="translate(-92.822 -202.258)" fill="#fff"/>
          <path id="Path_49892" data-name="Path 49892" d="M186.822,409.914a30.064,30.064,0,0,0-7.13.7,10.665,10.665,0,0,0-4.573,2.158l18.1,4.879a3.771,3.771,0,0,1,1.346-.83,10.21,10.21,0,0,1,2.839-.52,22.655,22.655,0,0,1,3.63.105,36.57,36.57,0,0,1,3.8.614l-1.092-4.623a85.907,85.907,0,0,0-8.612-1.785,58.923,58.923,0,0,0-8.3-.7" transform="translate(-90.479 -211.788)" fill="#fff"/>
          <path id="Path_49893" data-name="Path 49893" d="M200.669,434.379a38.677,38.677,0,0,1-4.778-2.652,20.584,20.584,0,0,1-3.372-2.7,9.256,9.256,0,0,1-1.177-1.459l-19.772-5.247a7.718,7.718,0,0,0,1.444,4.8,28.645,28.645,0,0,0,7.054,7.093,73.2,73.2,0,0,0,12.619,7.423,102.265,102.265,0,0,0,15.992,5.932l-2.605-11.034a50.258,50.258,0,0,1-5.405-2.153" transform="translate(-88.632 -218.199)" fill="#fff"/>
          <rect id="Rectangle_2224" data-name="Rectangle 2224" width="122.18" height="235.713" transform="translate(226.498 275.212) rotate(-86.367)" fill="#03ff00"/>
          <rect id="Rectangle_2225" data-name="Rectangle 2225" width="122.18" height="235.713" transform="translate(226.498 275.212) rotate(-86.367)" fill="none" stroke="#050786" stroke-miterlimit="10" stroke-width="4.027"/>
          <path id="Path_49894" data-name="Path 49894" d="M506.154,442.343l6.293-99.133,23.226,1.475q13.478.855,19.11,6.844t5.23,18.963q-.15,5.215-.433,9.676t-.794,9.654q-1.24,12.862-7.584,18.119t-19.824,4.4l-5.174-.328-2,31.475Zm21.088-46.686,5.174.329q3.791.241,5.83-1.434a7.118,7.118,0,0,0,2.425-4.885q.373-3.023.675-6.831t.484-7.621q.182-3.814.194-6.861a7.081,7.081,0,0,0-1.785-5.183q-1.814-1.889-5.6-2.129l-5.174-.329Z" transform="translate(-261.514 -177.324)" fill="#0004ff"/>
          <path id="Path_49895" data-name="Path 49895" d="M615.455,449.283l6.293-99.133L639.8,351.3l-5.255,82.777,23.707,1.5-1.039,16.357Z" transform="translate(-317.987 -180.91)" fill="#0004ff"/>
          <path id="Path_49896" data-name="Path 49896" d="M707.552,456.035,727.2,357.75l28.4,1.8,7.064,99.981-18.531-1.176-.733-20.824-13.96-.886-3.359,20.565ZM732.168,420.4l10.59.672L741.983,399l.067-23.883-3.369-.214-2.955,23.7Z" transform="translate(-365.571 -184.837)" fill="#0004ff"/>
          <path id="Path_49897" data-name="Path 49897" d="M837.476,462.951l1.495-23.544.008-.124-13.26-76.611,18.411,1.169,3.649,24.369-.044,29.235,3.369.214,3.655-29.006,6.7-23.712,18.413,1.169L857.03,440.429l-.008.124L855.527,464.1Z" transform="translate(-426.624 -187.38)" fill="#0004ff"/>
          <rect id="Rectangle_2226" data-name="Rectangle 2226" width="118.655" height="363.752" transform="translate(132.612 362.521) rotate(-74.629)" fill="#03ff00"/>
          <rect id="Rectangle_2227" data-name="Rectangle 2227" width="118.655" height="363.752" transform="translate(132.612 362.521) rotate(-74.629)" fill="none" stroke="#050786" stroke-miterlimit="10" stroke-width="4.027"/>
          <path id="Path_49898" data-name="Path 49898" d="M315.148,641.821l38.476-89.468,27.44,7.543L368.4,656.46l-17.906-4.922,3.362-19.96-13.487-3.708-7.314,18.873Zm31.067-28.851,10.231,2.812,3.565-21.155,4.741-22.707-3.256-.9-7.532,21.94Z" transform="translate(-162.827 -285.382)" fill="#0004ff"/>
          <path id="Path_49899" data-name="Path 49899" d="M429.579,669.487l25.57-93.016,22.441,6.168q13.022,3.581,17.36,10.432t1.405,19.113q-.779,3.288-1.421,5.737t-1.341,4.883q-.7,2.433-1.712,5.657a32.336,32.336,0,0,1-5.932,11.688,16.519,16.519,0,0,1-9.152,5.425l1.5,37.3L459.81,677.8l-.206-33.822-3.954-1.087-8.631,31.393Zm30.289-41.947,5,1.374q3.663,1.008,5.987-.166a6.822,6.822,0,0,0,3.328-4.15q.958-2.8,1.871-5.9t1.711-6.22q.8-3.125,1.405-6.023a6.783,6.783,0,0,0-.733-5.3q-1.405-2.167-5.066-3.175l-5-1.374Z" transform="translate(-221.95 -297.843)" fill="#0004ff"/>
          <path id="Path_49900" data-name="Path 49900" d="M564.528,710.6q-12.79-3.515-17.03-10.5t-1.079-19.618q1.45-5.729,3.087-11.907t3.377-12.515q1.742-6.335,3.495-12.483t3.434-11.812q3.725-12.419,10.93-16.223t19.994-.287q12.849,3.532,16.951,10.443t1.072,19.522Q607.4,651.1,605.818,657.3t-3.313,12.5q-1.733,6.308-3.535,12.409t-3.6,11.735q-3.858,12.445-10.926,16.318t-19.914.34m3.9-14.184a7.888,7.888,0,0,0,5.6-.118,5.93,5.93,0,0,0,3.009-3.895q1.92-5.849,3.987-12.91t4.127-14.56q2.061-7.5,3.9-14.623t3.172-13.135a5.667,5.667,0,0,0-.678-4.813,8.036,8.036,0,0,0-4.7-2.918,8.161,8.161,0,0,0-5.56.1,5.793,5.793,0,0,0-3.13,3.767q-1.863,5.865-3.958,12.918t-4.156,14.552q-2.062,7.5-3.866,14.631t-3.2,13.126a5.957,5.957,0,0,0,.74,4.925,8.059,8.059,0,0,0,4.722,2.955" transform="translate(-281.621 -317.011)" fill="#0004ff"/>
          <path id="Path_49901" data-name="Path 49901" d="M673.4,736.393q-13.082-3.6-17.233-10.552t-.876-19.562q4.594-17.62,9.509-35.5t9.956-35.311l17.441,4.794q-3.445,11.621-6.958,24.287t-6.91,25.363q-3.4,12.7-6.494,24.414a5.576,5.576,0,0,0,.654,4.9,8.281,8.281,0,0,0,4.81,2.979,8.009,8.009,0,0,0,5.626-.11,5.7,5.7,0,0,0,2.98-3.9q3.329-11.652,6.9-24.3t7.026-25.33q3.455-12.682,6.435-24.431l17.441,4.794q-4.52,17.58-9.434,35.455t-10.031,35.353q-3.626,12.51-10.723,16.374t-20.118.284" transform="translate(-337.821 -328.327)" fill="#0004ff"/>
          <path id="Path_49902" data-name="Path 49902" d="M752.479,758.252l25.571-93.016,25.23,6.936L802.1,703.739,795.3,753.516l3.025.831,7.131-38.682,9.568-40.265,16.859,4.635-25.571,93.016L779.8,765.763l1.4-32.381,8.242-48.632-3.255-.9-8.547,42.92-8.3,36.111Z" transform="translate(-388.783 -343.705)" fill="#0004ff"/>
          <path id="Path_49903" data-name="Path 49903" d="M871.484,790.966l25.57-93.016,23.6,6.488q13.079,3.6,17.4,10.755t1.048,19.952q-2.046,8.129-3.987,15.412t-3.995,14.533q-2.056,7.252-4.452,15.284-3.747,12.727-11.124,16.7t-20.457.379Zm21.66-10.553,6.162,1.694a8.507,8.507,0,0,0,6.043-.152,6.479,6.479,0,0,0,3.3-4.282q1.884-6.172,3.665-12.31t3.475-12.3q1.694-6.162,3.31-12.378t3.134-12.425a6.31,6.31,0,0,0-.675-5.282,8.621,8.621,0,0,0-5.126-3.191l-6.162-1.694Z" transform="translate(-450.269 -360.608)" fill="#0004ff"/>
          <path id="Path_49904" data-name="Path 49904" d="M579.54,121.577l-254.621,59.4L298.862,61.817l254.621-59.4Z" transform="translate(-154.413 -1.249)" fill="#03ff00"/>
          <path id="Path_49905" data-name="Path 49905" d="M579.54,121.577l-254.621,59.4L298.862,61.817l254.621-59.4Z" transform="translate(-154.413 -1.249)" fill="none" stroke="#050786" stroke-miterlimit="10" stroke-width="4.027"/>
          <path id="Path_49906" data-name="Path 49906" d="M378.192,226.565q-13.295,3.1-20.143-1.218t-10-17.329q-1.159-5.012-2.66-11.6t-3.058-13.7q-1.555-7.114-2.947-13.758t-2.457-11.8q-2.246-11.121,2.183-19t17.371-10.892q12.706-2.963,19.637,1.306t10.129,17.205q.495,1.985,1.005,4.315t.961,4.676q.45,2.345.829,4.356l-17.647,4.117q-.432-2.253-1.041-5.324t-1.278-6.13q-.669-3.055-1.217-5.283a5.86,5.86,0,0,0-2.833-4.048,7.407,7.407,0,0,0-5.315-.415,8.127,8.127,0,0,0-4.862,2.788,6.112,6.112,0,0,0-.991,4.941q1.155,6.413,2.682,13.819t3.208,15.1q1.681,7.691,3.378,15.026t3.309,13.577A6.105,6.105,0,0,0,369.4,211.4a7.835,7.835,0,0,0,5.557.39,8.342,8.342,0,0,0,5-2.853,6.058,6.058,0,0,0,.942-5.024q-.42-2.192-1.057-5.258t-1.337-6.115q-.7-3.049-1.233-5.218l17.646-4.116q.753,2.878,1.562,6.572t1.325,6.627q2.506,13.16-2.056,20.142t-17.562,10.014" transform="translate(-173.688 -65.127)" fill="#0004ff"/>
          <path id="Path_49907" data-name="Path 49907" d="M488.92,200.658q-12.942,3.018-19.967-1.261T458.774,182.11Q457.357,176.2,455.9,169.8t-2.905-13q-1.443-6.6-2.788-13.031t-2.524-12.392q-2.553-13.086,2.017-20.039t17.51-9.971q13-3.033,19.871,1.251t10.13,17.2q1.559,6,3.08,12.39t2.958,12.96q1.436,6.571,2.716,12.985t2.341,12.4q2.448,13.174-1.967,20.122t-17.415,9.98m-3.231-14.773a7.859,7.859,0,0,0,4.884-2.825,6.256,6.256,0,0,0,.824-5q-1.057-6.244-2.554-13.658t-3.2-15.224q-1.708-7.81-3.442-15.17t-3.377-13.466a5.81,5.81,0,0,0-2.863-4.041,7.818,7.818,0,0,0-5.52-.367,8.127,8.127,0,0,0-4.862,2.788,6.111,6.111,0,0,0-.991,4.941q1.114,6.231,2.583,13.652t3.176,15.232q1.708,7.81,3.471,15.163t3.348,13.473a6.1,6.1,0,0,0,2.971,4.111,7.835,7.835,0,0,0,5.557.39" transform="translate(-230.83 -51.72)" fill="#0004ff"/>
          <path id="Path_49908" data-name="Path 49908" d="M570.2,168.719,549.017,71.845l28.352-6.613,15.788,34.879,11.194,43.841,3.059-.713-8.254-44.528-.141-38.529L627.251,53.6l21.183,96.874-17.645,4.117-6.515-29.79-7.763-51.9-3.176.741,6.5,53.465-1.044,30.28-18.94,4.418-13.425-26.9-16.5-51.132-3.058.714,14.468,50.332,6.514,29.789Z" transform="translate(-283.661 -27.689)" fill="#0004ff"/>
          <path id="Path_49909" data-name="Path 49909" d="M739.634,138.554,718.45,41.68l40.7-9.5,3.495,15.984-23.057,5.378,5.163,23.613,21.882-5.1,3.5,15.985-21.883,5.1,5.534,25.308,23.058-5.378,3.495,15.985Z" transform="translate(-371.201 -16.627)" fill="#0004ff"/>
        </g>
      </g>
    </g>
  </g>
</svg>
