<svg xmlns="http://www.w3.org/2000/svg" xmlns:xlink="http://www.w3.org/1999/xlink" width="1080" height="1350" viewBox="0 0 1080 1350">
  <defs>
    <clipPath id="clip-path">
      <rect id="Rectangle_2242" data-name="Rectangle 2242" width="397.244" height="354.237" fill="none"/>
    </clipPath>
    <clipPath id="clip-frame_CPA_default_4.5">
      <rect width="1080" height="1350"/>
    </clipPath>
  </defs>
  <g id="frame_CPA_default_4.5" clip-path="url(#clip-frame_CPA_default_4.5)">
    <g id="Group_2515" data-name="Group 2515" transform="translate(-43 -119.999)">
      <path id="Exclusion_2" data-name="Exclusion 2" d="M1080,1350H0V0H1080V1350ZM53.853,40a14,14,0,0,0-14,14V1290a14,14,0,0,0,14,14H1026a14,14,0,0,0,14-14V54a14,14,0,0,0-14-14Z" transform="translate(43 119.999)" fill="#0004ff"/>
      <g id="Group_2507" data-name="Group 2507" transform="translate(61.756 140.208)">
        <g id="Group_2506" data-name="Group 2506" clip-path="url(#clip-path)">
          <path id="Path_49954" data-name="Path 49954" d="M80.515,402.2A285.668,285.668,0,0,1,3.49,237.519l-.967-8.753,8.551-2.1a281.922,281.922,0,0,1,91.839-6.977A281.92,281.92,0,0,1,192.2,242.295l8.06,3.536-2.448,8.458a281.916,281.916,0,0,1-39.876,83.027A282.06,282.06,0,0,1,93.71,403.335l-7.1,5.217Z" transform="translate(-1.584 -137.264)" fill="#0004ff"/>
          <path id="Path_49955" data-name="Path 49955" d="M80.515,402.2A285.668,285.668,0,0,1,3.49,237.519l-.967-8.753,8.551-2.1a281.922,281.922,0,0,1,91.839-6.977A281.92,281.92,0,0,1,192.2,242.295l8.06,3.536-2.448,8.458a281.916,281.916,0,0,1-39.876,83.027A282.06,282.06,0,0,1,93.71,403.335l-7.1,5.217Z" transform="translate(-1.584 -137.264)" fill="none" stroke="#050786" stroke-miterlimit="10" stroke-width="4.628"/>
          <path id="Path_49956" data-name="Path 49956" d="M120.529,246.667a273.177,273.177,0,0,0-88.573,6.723A275.641,275.641,0,0,0,106.242,412.21a273.164,273.164,0,0,0,61.934-63.676,273.173,273.173,0,0,0,38.465-80.068,273.182,273.182,0,0,0-86.112-21.8m42.479,91.409-.287-.3a37.658,37.658,0,0,0-2.7-3.564c-.989-1.164-2.092-2.334-3.292-3.5l-13.3-3.53a16.409,16.409,0,0,1,1.15,1.742,10.208,10.208,0,0,1,1.046,2.533,6.124,6.124,0,0,1,.145,2.417,4.992,4.992,0,0,1-.5,1.509L159.1,343.76c-.666.944-1.332,1.889-2.009,2.823l-14.19-8.751a12.179,12.179,0,0,1-2.939,1.338,23.686,23.686,0,0,1-4.784.9,42.914,42.914,0,0,1-6.358.083,67.964,67.964,0,0,1-7.848-.925l7.628,22.448a85.223,85.223,0,0,0,16.346.433,259.876,259.876,0,0,1-37.525,36.419,262.123,262.123,0,0,1-39.865-59.351,122.071,122.071,0,0,0,13.179,7.76,148.383,148.383,0,0,0,18.706,7.92,152.819,152.819,0,0,0,20,5.412l-5.316-22.515c-2.979-.759-5.945-1.661-8.85-2.689-2.956-1.047-5.816-2.21-8.534-3.461-2.689-1.238-5.212-2.548-7.535-3.9a65.517,65.517,0,0,1-5.788-3.786L62.124,327.4q-.943-2.179-1.846-4.367l18.916-2.6a25.631,25.631,0,0,1-3.294-3.721,12.75,12.75,0,0,1-1.747-3.313,6.524,6.524,0,0,1-.339-2.827,4.961,4.961,0,0,1,.54-1.732l-.009,0L52.98,303.164a258.975,258.975,0,0,1-9.771-41.915,262.716,262.716,0,0,1,76.446-4.458,262.74,262.74,0,0,1,74.553,17.489,262.056,262.056,0,0,1-31.2,63.8" transform="translate(-20.065 -154.235)" fill="#fff"/>
          <path id="Path_49957" data-name="Path 49957" d="M265.353,450.962a1.535,1.535,0,0,1-.294.709,2.931,2.931,0,0,1-1.512.934,9.542,9.542,0,0,1-2.733.351,22.208,22.208,0,0,1-3.841-.361l2.917,8.576a43.44,43.44,0,0,0,10.423.819,13.738,13.738,0,0,0,6.174-1.573,3.938,3.938,0,0,0,2.1-3.076,5.592,5.592,0,0,0-.813-3.081Z" transform="translate(-161.355 -283.162)" fill="#fff"/>
          <path id="Path_49958" data-name="Path 49958" d="M240.789,360.082a1,1,0,0,0,.024-1.016,3.883,3.883,0,0,0-1-1.228,11.019,11.019,0,0,0-1.733-1.215c-.332-.194-.685-.382-1.055-.563l.15-1.737c.274.113.555.222.822.339,1.068.47,2.081.975,3.011,1.5a23.689,23.689,0,0,1,2.555,1.653,13.512,13.512,0,0,1,1.411,1.227l11.464,3.091a31.192,31.192,0,0,0-4.067-3.394,53.68,53.68,0,0,0-5.661-3.471c-1.989-1.066-4.132-2.081-6.36-3.009-.942-.392-1.917-.765-2.9-1.129l.135-1.567c1.067.388,2.13.78,3.165,1.194q1.919.767,3.768,1.6t3.65,1.727l5.1-.7q-2.549-1.241-5.183-2.4-2.593-1.139-5.272-2.2c-1.638-.647-3.308-1.27-5-1.87l1.977-22.9c8.783-3.78,17.551,3.846,24.634-7.869-8.31,1.8-12.668-5.307-23.411-6.324l-4.99-.431-3.883,44.991c-.454-.095-.892-.172-1.3-.222a9.306,9.306,0,0,0-2-.055,3.036,3.036,0,0,0-1.356.4.912.912,0,0,0-.456.873,2.284,2.284,0,0,0,.683,1.239,8.688,8.688,0,0,0,1.716,1.364,17.718,17.718,0,0,0,2.51,1.3,21.576,21.576,0,0,0,2.979,1.014,15.989,15.989,0,0,0,2.78.489,6.9,6.9,0,0,0,2.019-.1,1.728,1.728,0,0,0,1.076-.6" transform="translate(-142.549 -194.267)" fill="#fff"/>
          <path id="Path_49959" data-name="Path 49959" d="M309.1,438.531c-1.645-1.053-3.338-2.073-5.06-3.055-1.111-.634-2.256-1.237-3.4-1.84l-5.087.82c.645.365,1.294.727,1.91,1.1,1.125.691,2.211,1.4,3.246,2.123,1.064.743,2.079,1.506,3.03,2.282.772.629,1.49,1.272,2.176,1.922l12.39,3.341c-1.356-1.128-2.755-2.23-4.2-3.286-1.614-1.177-3.287-2.316-5-3.411" transform="translate(-185.58 -272.284)" fill="#fff"/>
          <path id="Path_49960" data-name="Path 49960" d="M131.232,394.122l-7.938-4.893c-1.958-.134-3.892-.21-5.781-.216-2.045-.006-4.051.066-5.987.227a50.931,50.931,0,0,0-5.93.826,34.495,34.495,0,0,0-5.068,1.441l19.016,5.127a10.574,10.574,0,0,1,2.048-1.082,17.737,17.737,0,0,1,2.97-.855,28.3,28.3,0,0,1,3.321-.455c1.068-.086,2.191-.122,3.35-.119" transform="translate(-63.122 -244.263)" fill="#fff"/>
          <path id="Path_49961" data-name="Path 49961" d="M187.927,396.139q1.912.239,3.912.595,1.96.35,4,.812c1.223.278,2.475.6,3.741.939l-.7-2.967c-1.819-.52-3.62-1.006-5.392-1.44q-2.9-.709-5.732-1.278-2.907-.583-5.76-1.019c-.787-.12-1.562-.209-2.342-.309l7.553,4.591c.241.027.476.046.72.076" transform="translate(-112.806 -245.807)" fill="#fff"/>
          <path id="Path_49962" data-name="Path 49962" d="M184.129,409.917a23.143,23.143,0,0,0-5.489.538,8.211,8.211,0,0,0-3.52,1.661l13.932,3.756a2.9,2.9,0,0,1,1.036-.639,7.867,7.867,0,0,1,2.185-.4,17.449,17.449,0,0,1,2.794.081,28.09,28.09,0,0,1,2.922.473l-.841-3.559a66.119,66.119,0,0,0-6.63-1.374,45.373,45.373,0,0,0-6.39-.537" transform="translate(-109.959 -257.389)" fill="#fff"/>
          <path id="Path_49963" data-name="Path 49963" d="M193.966,431.608a29.762,29.762,0,0,1-3.679-2.041,15.844,15.844,0,0,1-2.6-2.078,7.121,7.121,0,0,1-.906-1.123l-15.221-4.04a5.941,5.941,0,0,0,1.111,3.692,22.051,22.051,0,0,0,5.431,5.461,56.355,56.355,0,0,0,9.715,5.715,78.735,78.735,0,0,0,12.312,4.567l-2.006-8.495a38.777,38.777,0,0,1-4.161-1.657" transform="translate(-107.715 -265.181)" fill="#fff"/>
          <rect id="Rectangle_2238" data-name="Rectangle 2238" width="94.061" height="181.465" transform="translate(174.37 211.872) rotate(-86.367)" fill="#03ff00"/>
          <rect id="Rectangle_2239" data-name="Rectangle 2239" width="94.061" height="181.465" transform="translate(174.37 211.872) rotate(-86.367)" fill="none" stroke="#050786" stroke-miterlimit="10" stroke-width="4.027"/>
          <path id="Path_49964" data-name="Path 49964" d="M506.154,419.532,511,343.214l17.88,1.135q10.376.659,14.712,5.269t4.026,14.6q-.116,4.015-.334,7.449t-.611,7.432q-.954,9.9-5.839,13.949t-15.262,3.389l-3.983-.253-1.539,24.231Zm16.235-35.941,3.983.253a6.248,6.248,0,0,0,4.488-1.1,5.48,5.48,0,0,0,1.867-3.761q.287-2.327.52-5.259t.373-5.867q.14-2.937.149-5.282a5.451,5.451,0,0,0-1.375-3.99,6.321,6.321,0,0,0-4.314-1.639l-3.983-.253Z" transform="translate(-317.817 -215.506)" fill="#0004ff"/>
          <path id="Path_49965" data-name="Path 49965" d="M615.456,426.471l4.845-76.318,13.9.882-4.046,63.726L648.4,415.92l-.8,12.592Z" transform="translate(-386.449 -219.864)" fill="#0004ff"/>
          <path id="Path_49966" data-name="Path 49966" d="M707.552,433.42l15.128-75.665,21.865,1.388,5.438,76.971-14.267-.906-.564-16.032-10.747-.682-2.586,15.832ZM726.5,405.984l8.153.518-.6-16.991.052-18.387-2.594-.164L729.242,389.2Z" transform="translate(-444.277 -224.637)" fill="#0004ff"/>
          <path id="Path_49967" data-name="Path 49967" d="M834.77,439.876l1.151-18.126.006-.1-10.208-58.979,14.174.9,2.809,18.76-.034,22.507,2.594.164,2.814-22.33,5.158-18.255,14.175.9-17.585,57.214-.006.1-1.151,18.126Z" transform="translate(-518.474 -227.726)" fill="#0004ff"/>
          <rect id="Rectangle_2240" data-name="Rectangle 2240" width="91.347" height="280.035" transform="translate(102.092 279.087) rotate(-74.629)" fill="#03ff00"/>
          <rect id="Rectangle_2241" data-name="Rectangle 2241" width="91.347" height="280.035" transform="translate(102.092 279.087) rotate(-74.629)" fill="none" stroke="#050786" stroke-miterlimit="10" stroke-width="4.027"/>
          <path id="Path_49968" data-name="Path 49968" d="M315.148,621.234l29.621-68.877,21.125,5.807-9.75,74.34-13.785-3.789,2.588-15.366-10.383-2.854-5.631,14.53Zm23.917-22.211,7.876,2.165,2.745-16.286,3.65-17.481-2.507-.69-5.8,16.891Z" transform="translate(-197.884 -346.829)" fill="#0004ff"/>
          <path id="Path_49969" data-name="Path 49969" d="M429.579,648.083l19.685-71.609,17.276,4.749q10.025,2.756,13.365,8.031t1.082,14.715q-.6,2.531-1.094,4.417t-1.033,3.759q-.541,1.873-1.318,4.355a24.892,24.892,0,0,1-4.567,9,12.717,12.717,0,0,1-7.046,4.177l1.155,28.719-14.231-3.912-.159-26.038-3.044-.836-6.645,24.168ZM452.9,615.79l3.849,1.058a6.371,6.371,0,0,0,4.609-.128,5.252,5.252,0,0,0,2.562-3.2q.737-2.156,1.441-4.538t1.317-4.789q.613-2.406,1.082-4.637a5.222,5.222,0,0,0-.564-4.079,6.451,6.451,0,0,0-3.9-2.444l-3.849-1.058Z" transform="translate(-269.736 -361.972)" fill="#0004ff"/>
          <path id="Path_49970" data-name="Path 49970" d="M560.05,688.271q-9.846-2.706-13.111-8.081t-.83-15.1q1.116-4.41,2.376-9.166t2.6-9.635q1.341-4.877,2.69-9.611t2.644-9.093q2.868-9.561,8.415-12.489t15.393-.221q9.891,2.719,13.05,8.04t.825,15.029q-1.05,4.525-2.265,9.293t-2.55,9.625q-1.334,4.856-2.722,9.553t-2.773,9.035q-2.97,9.581-8.411,12.562t-15.331.262m3-10.92a6.073,6.073,0,0,0,4.309-.091,4.566,4.566,0,0,0,2.316-3q1.478-4.5,3.07-9.938t3.177-11.209q1.587-5.773,3-11.258t2.442-10.112a4.362,4.362,0,0,0-.522-3.705,6.184,6.184,0,0,0-3.618-2.246,6.284,6.284,0,0,0-4.28.075,4.46,4.46,0,0,0-2.41,2.9q-1.434,4.515-3.047,9.945t-3.2,11.2q-1.588,5.774-2.976,11.264t-2.465,10.105a4.585,4.585,0,0,0,.57,3.792,6.206,6.206,0,0,0,3.635,2.275" transform="translate(-342.252 -385.266)" fill="#0004ff"/>
          <path id="Path_49971" data-name="Path 49971" d="M668.9,713.17q-10.071-2.768-13.267-8.124t-.674-15.06q3.536-13.565,7.32-27.328t7.665-27.184l13.427,3.691q-2.652,8.946-5.356,18.7t-5.319,19.526q-2.616,9.776-5,18.795a4.293,4.293,0,0,0,.5,3.773,6.376,6.376,0,0,0,3.7,2.293,6.166,6.166,0,0,0,4.331-.084,4.391,4.391,0,0,0,2.294-3q2.563-8.97,5.312-18.71t5.409-19.5q2.66-9.763,4.954-18.808l13.427,3.691q-3.48,13.534-7.263,27.3t-7.723,27.217q-2.792,9.631-8.255,12.606t-15.488.218" transform="translate(-410.553 -399.019)" fill="#0004ff"/>
          <path id="Path_49972" data-name="Path 49972" d="M752.479,736.848l19.686-71.609,19.423,5.339-.9,24.3-5.24,38.321,2.329.64,5.49-29.78,7.366-31,12.979,3.568-19.686,71.609-20.408-5.61L774.59,717.7l6.345-37.439-2.506-.689-6.58,33.042-6.392,27.8Z" transform="translate(-472.487 -417.708)" fill="#0004ff"/>
          <path id="Path_49973" data-name="Path 49973" d="M871.484,769.562l19.685-71.608,18.171,4.995q10.069,2.768,13.393,8.28t.807,15.36q-1.575,6.258-3.069,11.865T917.4,749.642q-1.583,5.583-3.428,11.766-2.884,9.8-8.564,12.857t-15.749.292Zm16.675-8.124,4.744,1.3a6.55,6.55,0,0,0,4.652-.117,4.988,4.988,0,0,0,2.544-3.3q1.45-4.751,2.822-9.477t2.675-9.47q1.3-4.743,2.548-9.529t2.413-9.566a4.858,4.858,0,0,0-.519-4.066,6.637,6.637,0,0,0-3.946-2.457l-4.744-1.3Z" transform="translate(-547.211 -438.25)" fill="#0004ff"/>
          <path id="Path_49974" data-name="Path 49974" d="M514.943,94.157,318.922,139.883,298.862,48.15,494.883,2.424Z" transform="translate(-187.657 -1.522)" fill="#03ff00"/>
          <path id="Path_49975" data-name="Path 49975" d="M514.943,94.157,318.922,139.883,298.862,48.15,494.883,2.424Z" transform="translate(-187.657 -1.522)" fill="none" stroke="#050786" stroke-miterlimit="10" stroke-width="4.027"/>
          <path id="Path_49976" data-name="Path 49976" d="M368.52,203.437q-10.235,2.388-15.507-.938t-7.7-13.341q-.892-3.858-2.048-8.929t-2.354-10.547q-1.2-5.477-2.269-10.592T336.751,150q-1.729-8.561,1.68-14.624t13.373-8.385q9.781-2.281,15.117,1.005t7.8,13.245q.381,1.528.774,3.322t.74,3.6q.347,1.806.639,3.353l-13.586,3.169q-.332-1.734-.8-4.1t-.984-4.719q-.515-2.352-.937-4.067a4.511,4.511,0,0,0-2.181-3.117,5.7,5.7,0,0,0-4.091-.319,6.256,6.256,0,0,0-3.743,2.146,4.705,4.705,0,0,0-.763,3.8q.889,4.937,2.065,10.639t2.47,11.622q1.294,5.921,2.6,11.568t2.547,10.452a4.7,4.7,0,0,0,2.287,3.165,6.032,6.032,0,0,0,4.278.3,6.422,6.422,0,0,0,3.851-2.2,4.664,4.664,0,0,0,.725-3.868q-.323-1.688-.814-4.048t-1.03-4.708q-.539-2.348-.95-4.017l13.585-3.168q.58,2.216,1.2,5.06t1.02,5.1q1.929,10.131-1.583,15.507t-13.52,7.709" transform="translate(-211.083 -79.154)" fill="#0004ff"/>
          <path id="Path_49977" data-name="Path 49977" d="M479.218,177.519q-9.963,2.324-15.372-.97T456.01,163.24q-1.091-4.547-2.216-9.478t-2.237-10.01q-1.111-5.081-2.146-10.032t-1.943-9.54q-1.965-10.074,1.553-15.427t13.48-7.676q10.007-2.335,15.3.963t7.8,13.245q1.2,4.619,2.371,9.539t2.277,9.977q1.106,5.058,2.091,10t1.8,9.549q1.885,10.142-1.514,15.491t-13.407,7.683m-2.487-11.373a6.05,6.05,0,0,0,3.76-2.175,4.817,4.817,0,0,0,.635-3.847q-.814-4.807-1.967-10.515t-2.467-11.72q-1.315-6.013-2.65-11.679t-2.6-10.367a4.473,4.473,0,0,0-2.2-3.111,6.019,6.019,0,0,0-4.25-.282,6.256,6.256,0,0,0-3.743,2.146,4.7,4.7,0,0,0-.763,3.8q.857,4.8,1.989,10.51t2.445,11.726q1.315,6.012,2.672,11.673t2.577,10.372a4.7,4.7,0,0,0,2.287,3.165,6.032,6.032,0,0,0,4.278.3" transform="translate(-280.526 -62.859)" fill="#0004ff"/>
          <path id="Path_49978" data-name="Path 49978" d="M565.326,142.227,549.017,67.649l21.827-5.091L583,89.409l8.618,33.751,2.355-.549-6.354-34.28-.108-29.662,21.736-5.07,16.308,74.579-13.584,3.169-5.016-22.934-5.976-39.952-2.445.57,5,41.16-.8,23.311-14.581,3.4-10.335-20.712-12.7-39.364-2.354.55L573.9,116.125l5.015,22.933Z" transform="translate(-344.732 -33.655)" fill="#0004ff"/>
          <path id="Path_49979" data-name="Path 49979" d="M734.758,114.077,718.45,39.5l31.336-7.31,2.69,12.305-17.751,4.141L738.7,66.813l16.846-3.929,2.692,12.306-16.847,3.929L745.652,98.6,763.4,94.461l2.691,12.306Z" transform="translate(-451.12 -20.212)" fill="#0004ff"/>
        </g>
      </g>
    </g>
  </g>
</svg>
